<?xml version="1.0" encoding="UTF-8" standalone="no"?>
<svg
   xmlns:dc="http://purl.org/dc/elements/1.1/"
   xmlns:cc="http://creativecommons.org/ns#"
   xmlns:rdf="http://www.w3.org/1999/02/22-rdf-syntax-ns#"
   xmlns:svg="http://www.w3.org/2000/svg"
   xmlns="http://www.w3.org/2000/svg"
   xmlns:sodipodi="http://sodipodi.sourceforge.net/DTD/sodipodi-0.dtd"
   xmlns:inkscape="http://www.inkscape.org/namespaces/inkscape"
   width="210.32031mm"
   height="223.33397mm"
   viewBox="0 0 210.32031 223.33397"
   version="1.1"
   id="svg5"
   inkscape:version="1.0.2 (e86c870879, 2021-01-15)"
   sodipodi:docname="icon.svg"
   xml:space="preserve"
   inkscape:export-filename="PDC-Logo_pathed.png"
   inkscape:export-xdpi="350"
   inkscape:export-ydpi="350"><metadata
     id="metadata40"><rdf:RDF><cc:Work
         rdf:about=""><dc:format>image/svg+xml</dc:format><dc:type
           rdf:resource="http://purl.org/dc/dcmitype/StillImage" /><dc:title></dc:title></cc:Work></rdf:RDF></metadata><sodipodi:namedview
     id="namedview7"
     pagecolor="#ffffff"
     bordercolor="#666666"
     borderopacity="1.0"
     inkscape:showpageshadow="2"
     inkscape:pageopacity="0.0"
     inkscape:pagecheckerboard="0"
     inkscape:deskcolor="#d1d1d1"
     inkscape:document-units="mm"
     showgrid="false"
     inkscape:zoom="0.41424662"
     inkscape:cx="773.19905"
     inkscape:cy="538.32666"
     inkscape:window-width="1920"
     inkscape:window-height="1019"
     inkscape:window-x="0"
     inkscape:window-y="0"
     inkscape:window-maximized="1"
     inkscape:current-layer="layer1"
     inkscape:document-rotation="0"
     fit-margin-top="0"
     fit-margin-left="0"
     fit-margin-right="0"
     fit-margin-bottom="0" /><defs
     id="defs2"><inkscape:path-effect
       effect="spiro"
       id="path-effect558"
       is_visible="true"
       lpeversion="1" /><inkscape:path-effect
       effect="spiro"
       id="path-effect1165"
       is_visible="true"
       lpeversion="1" /><inkscape:path-effect
       effect="spiro"
       id="path-effect1161"
       is_visible="true"
       lpeversion="1" /><inkscape:path-effect
       effect="spiro"
       id="path-effect1143"
       is_visible="true"
       lpeversion="1" /><inkscape:path-effect
       effect="spiro"
       id="path-effect1126"
       is_visible="true"
       lpeversion="1" /><inkscape:path-effect
       effect="spiro"
       id="path-effect1026"
       is_visible="true"
       lpeversion="1" /></defs><g
     inkscape:label="Layer 1"
     inkscape:groupmode="layer"
     id="layer1"
     transform="translate(405.24683,56.426945)"><path
       id="path1124"
       style="fill:#f58320;fill-opacity:1;fill-rule:evenodd;stroke:none;stroke-width:0.264583px;stroke-linecap:butt;stroke-linejoin:miter;stroke-opacity:1"
       d="m -276.58638,42.812571 c 0,0 47.81558,-28.233706 63.18882,-37.2524837 2.61796,56.7836827 -22.15716,110.7135727 -63.06906,133.3383727 0,-18.08179 -0.11976,-96.085889 -0.11976,-96.085889 z m -16.97656,-11.33987 c 0,0 0.11291,108.966459 0.11291,135.434329 34.74441,-7.92188 70.80791,-48.66529 85.00394,-85.430395 17.1188,-44.334531 15.02559,-83.4448557 9.70246,-96.946321 -1.12855,-2.862426 -4.32363,-5.989438 -9.0796,-3.243573 -21.10065,12.1824638 -85.73971,50.18596 -85.73971,50.18596 z"
       sodipodi:nodetypes="ccccccsssc" /><path
       id="path1163"
       style="fill:#343433;fill-opacity:1;fill-rule:evenodd;stroke:none;stroke-width:0.264583px;stroke-linecap:butt;stroke-linejoin:miter;stroke-opacity:1"
       d="m -387.33385,5.5036332 c -1.24763,13.3345208 0.87825,31.5882698 3.66954,40.8730548 l 59.57361,35.792149 v -39.65566 z m 80.1892,142.3367568 c 0,7.52266 0,11.25425 0,19.06664 -63.81401,-19.52797 -98.10181,-93.76878 -98.10181,-150.800507 0,-12.7180257 -0.27297,-42.351455 14.00201,-34.107664 28.76256,16.6060752 84.11976,49.476617 84.11976,49.476617 l -0.0399,79.539314 c 0,0 -38.57186,-21.504718 -70.3978,-39.879435 5.7033,24.453032 34.98912,60.010345 70.41774,76.705035 z"
       sodipodi:nodetypes="cccccccsccccc" /><path
       style="fill:#1176bc;fill-opacity:1;fill-rule:evenodd;stroke:none;stroke-width:0.264583px;stroke-linecap:butt;stroke-linejoin:miter;stroke-opacity:1"
       d="m -326.363,-56.426945 0.56455,16.71053 -28.45307,17.444439 55.07079,33.308743 54.45,-33.452421 -30.49839,-17.085484 -0.0143,-16.841125 60.09578,33.251697 -84.25833,48.720229 -86.00843,-50.498545 z"
       id="path556" /></g></svg>
